<?xml version="1.0" encoding="utf-8"?>
<!-- Generator: Adobe Illustrator 19.1.0, SVG Export Plug-In . SVG Version: 6.00 Build 0)  -->
<!DOCTYPE svg PUBLIC "-//W3C//DTD SVG 1.1//EN" "http://www.w3.org/Graphics/SVG/1.1/DTD/svg11.dtd">
<svg version="1.1" id="Lager_1" xmlns="http://www.w3.org/2000/svg" xmlns:xlink="http://www.w3.org/1999/xlink" x="0px" y="0px"
	 width="90px" height="90px" viewBox="0 0 90 90" style="enable-background:new 0 0 90 90;" xml:space="preserve">
<style type="text/css">
	.st0{display:none;fill:#DD1717;}
	.st1{display:none;fill:none;stroke:#DD1717;stroke-miterlimit:10;}
	.st2{fill:none;stroke:#DD1717;stroke-miterlimit:10;}
</style>
<path class="st0" d="M45,0C20.1,0,0,20.1,0,45c0,24.9,20.1,45,45,45s45-20.1,45-45C90,20.1,69.9,0,45,0z M45,75
	c-16.6,0-30-13.4-30-30s13.4-30,30-30s30,13.4,30,30S61.6,75,45,75z"/>
<circle class="st1" cx="45.5" cy="45.5" r="37.5"/>
<path class="st2" d="M45.5,8C22.4,8,8,27.2,8,45.5C8,62.5,21.4,83,45.5,83C71.4,83,83,61.1,83,45S69.9,8,45.5,8z"/>
</svg>
