<?xml version="1.0" encoding="utf-8"?>
<!-- Generator: Adobe Illustrator 20.1.0, SVG Export Plug-In . SVG Version: 6.00 Build 0)  -->
<svg version="1.1" id="Layer_1" xmlns="http://www.w3.org/2000/svg" xmlns:xlink="http://www.w3.org/1999/xlink" x="0px" y="0px"
	 viewBox="0 0 155 52" style="enable-background:new 0 0 155 52;" xml:space="preserve">
<style type="text/css">
	.st0{fill:#FFFFFF;}
	.st1{font-family:'Avenir-Black';}
	.st2{font-size:32px;}
	.st3{font-family:'Avenir-Medium';}
	.st4{font-size:20px;}
</style>
<title>re nässans</title>
<desc>Created with Sketch.</desc>
<g id="Page-1">
	<g id="real" transform="translate(-90.000000, -77.000000)">
		<text transform="matrix(1 0 0 1 89 100.4377)" class="st0 st1 st2">re nässans</text>
	</g>
</g>
<g id="Page-1_1_">
	<g id="real_1_" transform="translate(-120.000000, -87.000000)">
		<path id="ä" class="st0" d="M157.4,106.1c0,0.4-0.1,0.7-0.2,1.1c-0.1,0.3-0.4,0.6-0.6,0.8c-0.3,0.2-0.5,0.4-0.9,0.6
			c-0.3,0.1-0.7,0.2-1,0.2s-0.7-0.1-1-0.2s-0.6-0.3-0.8-0.6s-0.4-0.5-0.6-0.8s-0.2-0.6-0.2-1c0-0.7,0.2-1.4,0.7-2s1.1-0.8,1.9-0.8
			s1.4,0.3,2,0.8C157.1,104.7,157.4,105.3,157.4,106.1L157.4,106.1z M157.4,99.4c0,0.4-0.1,0.7-0.2,1.1c-0.1,0.3-0.4,0.6-0.6,0.8
			c-0.3,0.2-0.5,0.4-0.9,0.6c-0.3,0.1-0.7,0.2-1,0.2s-0.7-0.1-1-0.2s-0.6-0.3-0.8-0.6c-0.2-0.2-0.4-0.5-0.6-0.8s-0.2-0.6-0.2-1
			c0-0.7,0.2-1.4,0.7-2s1.1-0.8,1.9-0.8s1.4,0.3,2,0.8C157.1,98,157.4,98.7,157.4,99.4L157.4,99.4z"/>
	</g>
</g>
<g id="Page-1_2_">
	<g id="real_2_" transform="translate(-90.000000, -113.000000)">
		<text transform="matrix(1 0 0 1 89.2527 160.9969)" class="st0 st3 st4">[renes&apos;an:s]</text>
	</g>
</g>
</svg>
